<svg width="257" height="248" viewBox="0 0 257 248" fill="none" xmlns="http://www.w3.org/2000/svg">
<circle cx="121.5" cy="121.5" r="121.5" fill="#13662F"/>
<path d="M124.918 134.834C124.918 144.422 121.722 151.503 115.33 156.078C109.001 160.653 100.541 162.94 89.95 162.94C79.3593 162.94 70.868 160.653 64.476 156.078C58.1467 151.503 54.982 144.359 54.982 134.646V123.554C54.982 117.162 56.486 111.867 59.494 107.668C62.5647 103.407 66.732 100.273 71.996 98.268C77.26 96.2627 83.2447 95.26 89.95 95.26C96.6553 95.26 102.609 96.2627 107.81 98.268C113.074 100.273 117.241 103.375 120.312 107.574C123.383 111.773 124.918 117.037 124.918 123.366V134.834ZM80.362 136.62C80.362 139.189 81.208 141.163 82.9 142.542C84.6547 143.921 87.0047 144.61 89.95 144.61C92.8953 144.61 95.214 143.921 96.906 142.542C98.6607 141.101 99.538 139.095 99.538 136.526V121.674C99.538 119.105 98.6607 117.131 96.906 115.752C95.214 114.311 92.8953 113.59 89.95 113.59C87.0047 113.59 84.6547 114.279 82.9 115.658C81.208 117.037 80.362 119.011 80.362 121.58V136.62ZM201.585 96.2C202.275 96.2 202.87 96.4507 203.371 96.952C203.873 97.4533 204.123 98.0487 204.123 98.738V113.026C204.123 113.715 203.873 114.311 203.371 114.812C202.87 115.313 202.275 115.564 201.585 115.564H164.643V121.58H195.475C196.165 121.58 196.76 121.831 197.261 122.332C197.763 122.833 198.013 123.429 198.013 124.118V138.312C198.013 139.001 197.763 139.597 197.261 140.098C196.76 140.599 196.165 140.85 195.475 140.85H164.643V159.462C164.643 160.151 164.393 160.747 163.891 161.248C163.39 161.749 162.795 162 162.105 162H141.801C141.112 162 140.517 161.749 140.015 161.248C139.514 160.747 139.263 160.151 139.263 159.462V98.738C139.263 98.0487 139.514 97.4533 140.015 96.952C140.517 96.4507 141.112 96.2 141.801 96.2H201.585Z" fill="white"/>
<path d="M67.064 82.24C67.688 82.432 68.224 82.856 68.672 83.512C69.12 84.152 69.344 84.888 69.344 85.72C69.344 87.496 68.768 88.824 67.616 89.704C66.464 90.568 64.784 91 62.576 91H52.688C52.512 91 52.36 90.936 52.232 90.808C52.104 90.68 52.04 90.528 52.04 90.352V74.848C52.04 74.672 52.104 74.52 52.232 74.392C52.36 74.264 52.512 74.2 52.688 74.2H62.336C64.608 74.2 66.28 74.616 67.352 75.448C68.44 76.264 68.984 77.504 68.984 79.168V79.24C68.984 80.008 68.776 80.664 68.36 81.208C67.944 81.752 67.512 82.096 67.064 82.24ZM62.48 79.384C62.48 79.096 62.392 78.848 62.216 78.64C62.056 78.432 61.816 78.328 61.496 78.328H58.28V80.512H61.496C61.816 80.512 62.056 80.4 62.216 80.176C62.392 79.936 62.48 79.672 62.48 79.384ZM61.76 86.872C62.128 86.872 62.4 86.752 62.576 86.512C62.768 86.256 62.864 85.976 62.864 85.672V85.648C62.864 85.344 62.76 85.08 62.552 84.856C62.36 84.632 62.096 84.52 61.76 84.52H58.28V86.872H61.76ZM81.9106 80.296C83.6706 80.488 85.0786 80.8 86.1346 81.232C87.2066 81.664 87.9826 82.232 88.4626 82.936C88.9426 83.64 89.1826 84.52 89.1826 85.576C89.1826 86.728 88.8066 87.736 88.0546 88.6C87.3186 89.448 86.2946 90.104 84.9826 90.568C83.6706 91.016 82.1746 91.24 80.4946 91.24C78.6226 91.24 77.0386 91.008 75.7426 90.544C74.4466 90.08 73.4786 89.464 72.8386 88.696C72.1986 87.912 71.8786 87.056 71.8786 86.128C71.8786 85.968 71.9266 85.84 72.0226 85.744C72.1346 85.648 72.2706 85.6 72.4306 85.6H77.3506C77.6866 85.6 77.9586 85.704 78.1666 85.912C78.4386 86.168 78.7426 86.344 79.0786 86.44C79.4146 86.52 79.8866 86.56 80.4946 86.56C82.0146 86.56 82.7746 86.328 82.7746 85.864C82.7746 85.672 82.6706 85.512 82.4626 85.384C82.2706 85.24 81.9186 85.12 81.4066 85.024C80.9106 84.912 80.1746 84.8 79.1986 84.688C77.0066 84.432 75.3266 83.888 74.1586 83.056C72.9906 82.208 72.4066 81.016 72.4066 79.48C72.4066 78.392 72.7346 77.432 73.3906 76.6C74.0466 75.768 74.9746 75.12 76.1746 74.656C77.3906 74.192 78.7986 73.96 80.3986 73.96C82.0626 73.96 83.5186 74.224 84.7666 74.752C86.0146 75.264 86.9666 75.904 87.6226 76.672C88.2786 77.44 88.6066 78.192 88.6066 78.928C88.6066 79.088 88.5506 79.216 88.4386 79.312C88.3426 79.408 88.2066 79.456 88.0306 79.456H82.8706C82.5986 79.456 82.3506 79.36 82.1266 79.168C81.9506 79.008 81.7426 78.88 81.5026 78.784C81.2626 78.688 80.8946 78.64 80.3986 78.64C79.3266 78.64 78.7906 78.864 78.7906 79.312C78.7906 79.552 78.9986 79.744 79.4146 79.888C79.8306 80.016 80.6626 80.152 81.9106 80.296ZM108.373 86.08C108.549 86.08 108.701 86.144 108.829 86.272C108.957 86.4 109.021 86.552 109.021 86.728V90.352C109.021 90.528 108.957 90.68 108.829 90.808C108.701 90.936 108.549 91 108.373 91H93.9013C93.7253 91 93.5733 90.936 93.4453 90.808C93.3173 90.68 93.2533 90.528 93.2533 90.352V87.4C93.2533 87.16 93.2853 86.928 93.3493 86.704C93.4133 86.48 93.5893 86.28 93.8773 86.104C96.5973 84.392 98.6293 83.024 99.9733 82C101.333 80.976 102.013 80.184 102.013 79.624C102.013 79.32 101.957 79.088 101.845 78.928C101.733 78.752 101.485 78.664 101.101 78.664C100.653 78.664 100.341 78.776 100.165 79C99.9893 79.224 99.8693 79.456 99.8053 79.696C99.7573 79.936 99.7173 80.096 99.6853 80.176C99.6373 80.304 99.5653 80.384 99.4693 80.416C99.3893 80.432 99.3013 80.44 99.2053 80.44C99.1093 80.44 99.0453 80.44 99.0133 80.44H94.1413C93.9813 80.44 93.8373 80.384 93.7093 80.272C93.5973 80.144 93.5413 80 93.5413 79.84C93.5413 78.656 93.8533 77.624 94.4773 76.744C95.1173 75.848 96.0213 75.16 97.1893 74.68C98.3573 74.2 99.7253 73.96 101.293 73.96C103.629 73.96 105.397 74.424 106.597 75.352C107.797 76.28 108.397 77.6 108.397 79.312C108.397 80.112 108.141 80.864 107.629 81.568C107.133 82.272 106.501 82.92 105.733 83.512C104.981 84.104 103.949 84.832 102.637 85.696L102.061 86.08H108.373Z" fill="#ECECEC"/>
<rect x="157" y="148" width="100" height="100" rx="15" fill="#287B44"/>
<path d="M201.254 204.395H193.406C193.406 202.79 193.516 201.378 193.734 200.156C193.971 198.917 194.372 197.805 194.938 196.82C195.503 195.836 196.268 194.924 197.234 194.086C198.091 193.375 198.829 192.691 199.449 192.035C200.069 191.379 200.543 190.714 200.871 190.039C201.199 189.365 201.363 188.645 201.363 187.879C201.363 186.931 201.227 186.156 200.953 185.555C200.698 184.953 200.306 184.507 199.777 184.215C199.267 183.905 198.62 183.75 197.836 183.75C197.198 183.75 196.596 183.905 196.031 184.215C195.484 184.525 195.038 185.008 194.691 185.664C194.345 186.302 194.154 187.15 194.117 188.207H184.848C184.902 185.491 185.504 183.285 186.652 181.59C187.819 179.876 189.368 178.628 191.301 177.844C193.251 177.042 195.43 176.641 197.836 176.641C200.497 176.641 202.785 177.051 204.699 177.871C206.613 178.691 208.081 179.913 209.102 181.535C210.122 183.139 210.633 185.117 210.633 187.469C210.633 189.036 210.332 190.404 209.73 191.57C209.147 192.719 208.354 193.794 207.352 194.797C206.367 195.781 205.264 196.839 204.043 197.969C202.986 198.898 202.266 199.846 201.883 200.812C201.5 201.76 201.29 202.954 201.254 204.395ZM192.285 212.707C192.285 211.395 192.759 210.301 193.707 209.426C194.655 208.533 195.885 208.086 197.398 208.086C198.911 208.086 200.142 208.533 201.09 209.426C202.038 210.301 202.512 211.395 202.512 212.707C202.512 214.02 202.038 215.122 201.09 216.016C200.142 216.891 198.911 217.328 197.398 217.328C195.885 217.328 194.655 216.891 193.707 216.016C192.759 215.122 192.285 214.02 192.285 212.707ZM225.48 177.188L224.305 204.395H216.812L215.637 177.188H225.48ZM215.391 212.871C215.391 211.559 215.865 210.465 216.812 209.59C217.76 208.697 218.991 208.25 220.504 208.25C222.017 208.25 223.238 208.697 224.168 209.59C225.116 210.465 225.59 211.559 225.59 212.871C225.59 214.184 225.116 215.286 224.168 216.18C223.238 217.055 222.017 217.492 220.504 217.492C218.991 217.492 217.76 217.055 216.812 216.18C215.865 215.286 215.391 214.184 215.391 212.871Z" fill="white"/>
</svg>
